<svg xmlns="http://www.w3.org/2000/svg" viewBox="0 0 64 64" role="img" aria-label="NeuroForge">
  <defs>
    <linearGradient id="g" x1="0%" y1="0%" x2="100%" y2="100%">
      <stop offset="0%" stop-color="#00e5ff"/>
      <stop offset="50%" stop-color="#b347ea"/>
      <stop offset="100%" stop-color="#ff3d71"/>
    </linearGradient>
  </defs>
  <rect width="64" height="64" rx="14" fill="#0a0a0f"/>
  <path fill="url(#g)" d="M32 10c-8 0-14 6-14 14 0 5 2 9 6 12-4 3-6 7-6 12 0 8 6 14 14 14s14-6 14-14c0-5-2-9-6-12 4-3 6-7 6-12 0-8-6-14-14-14zm0 8c3.3 0 6 2.7 6 6s-2.7 6-6 6-6-2.7-6-6 2.7-6 6-6zm0 22c3.3 0 6 2.7 6 6s-2.7 6-6 6-6-2.7-6-6 2.7-6 6-6z"/>
</svg>
